<svg xmlns="http://www.w3.org/2000/svg" width="100" height="100" viewBox="0 0 100 100">
  <metadata><?xpacket begin="﻿" id="W5M0MpCehiHzreSzNTczkc9d"?>
<x:xmpmeta xmlns:x="adobe:ns:meta/" x:xmptk="Adobe XMP Core 5.6-c142 79.160924, 2017/07/13-01:06:39        ">
   <rdf:RDF xmlns:rdf="http://www.w3.org/1999/02/22-rdf-syntax-ns#">
      <rdf:Description rdf:about=""/>
   </rdf:RDF>
</x:xmpmeta>
                                                                                                    
                                                                                                    
                                                                                                    
                                                                                                    
                                                                                                    
                                                                                                    
                                                                                                    
                                                                                                    
                                                                                                    
                                                                                                    
                                                                                                    
                                                                                                    
                                                                                                    
                                                                                                    
                                                                                                    
                                                                                                    
                                                                                                    
                                                                                                    
                                                                                                    
                                                                                                    
                           
<?xpacket end="w"?></metadata>
<defs>
    <style>
      .cls-1 {
        fill: #fff;
        fill-rule: evenodd;
      }
    </style>
  </defs>
  <g id="Plan_de_travail_3" data-name="Plan de travail 3">
    <path id="Forme_3" data-name="Forme 3" class="cls-1" d="M488.1,1.025h-76.19a11.868,11.868,0,0,0-11.882,11.854V89.124a11.868,11.868,0,0,0,11.882,11.854H488.1A11.867,11.867,0,0,0,499.98,89.124V12.879A11.867,11.867,0,0,0,488.1,1.025Zm-16.23,15.618a3.124,3.124,0,0,1,3.123-3.123h9.371a3.124,3.124,0,0,1,3.123,3.123v9.371a3.124,3.124,0,0,1-3.123,3.123h-9.371a3.124,3.124,0,0,1-3.123-3.123V16.643Zm-21.75,15.3A19.177,19.177,0,1,1,430.9,51.117,19.2,19.2,0,0,1,450.119,31.942ZM490.61,88.484a3.125,3.125,0,0,1-3.124,3.123H412.522a3.125,3.125,0,0,1-3.124-3.123V41.631h12.494c-1.627,2.343-2.177,6.713-2.177,9.486a30.406,30.406,0,0,0,60.812,0c0-2.773-.394-7.078-2.411-9.486H490.61V88.484Z" transform="translate(-400)"/>
  </g>
</svg>
