<svg xmlns="http://www.w3.org/2000/svg" width="330" height="266.64" viewBox="0 0 500 404">
  <metadata><?xpacket begin="﻿" id="W5M0MpCehiHzreSzNTczkc9d"?>
<x:xmpmeta xmlns:x="adobe:ns:meta/" x:xmptk="Adobe XMP Core 5.6-c142 79.160924, 2017/07/13-01:06:39        ">
   <rdf:RDF xmlns:rdf="http://www.w3.org/1999/02/22-rdf-syntax-ns#">
      <rdf:Description rdf:about=""/>
   </rdf:RDF>
</x:xmpmeta>
                                                                                                    
                                                                                                    
                                                                                                    
                                                                                                    
                                                                                                    
                                                                                                    
                                                                                                    
                                                                                                    
                                                                                                    
                                                                                                    
                                                                                                    
                                                                                                    
                                                                                                    
                                                                                                    
                                                                                                    
                                                                                                    
                                                                                                    
                                                                                                    
                                                                                                    
                                                                                                    
                           
<?xpacket end="w"?></metadata>
<defs>
    <style>
      .cls-1 {
        fill: #fff;
        fill-rule: evenodd;
      }
    </style>
  </defs>
  <g id="Plan_de_travail_1" data-name="Plan de travail 1">
    <g id="Groupe_1" data-name="Groupe 1">
      <path id="OKAÏSA" class="cls-1" d="M851.99,341.293q-1.382-10.361-2.494-13.009a25.141,25.141,0,0,0-3.375-5.564q-2.264-2.916-2.8-3.76a14.372,14.372,0,0,0-9.55-3.147q-5.793,0-9.014,3.607a13.651,13.651,0,0,0-2.455,4.068,28.581,28.581,0,0,0-1.5,4.8,49.587,49.587,0,0,0-.806,5.449q-0.307,3.109-.383,5.334t-0.154,5.142q-0.077,2.917-.767,12.97t-0.69,17.921q0,7.868.92,18.611,0.614,6.447,1.534,12.471a118.134,118.134,0,0,0,2.57,12.28,61.387,61.387,0,0,0,3.836,10.821,23.157,23.157,0,0,0,5.485,7.483,10.577,10.577,0,0,0,7.134,2.916q3.834,0,7.172-3.569a24.142,24.142,0,0,0,5.025-8.058,24.708,24.708,0,0,0,1.687-8.711,42.555,42.555,0,0,1,1.228-9.516l-0.307-.614,1.457-20.261a348.444,348.444,0,0,0-3.758-47.66h0ZM842.4,325.56a45.194,45.194,0,0,1,2.876,6.14,47.119,47.119,0,0,1,2.148,7.866q0.882,4.568,1.573,8.6t1.074,9.171q0.383,5.142.613,8.749t0.307,8.25q0.077,4.645.115,6.677t0.039,4.95v3.761q0,3.531-.537,15.2a119.591,119.591,0,0,1-2.915,19.455q-2.457,10.937-7.825,10.936-3.989,0-7.249-5.525a46.881,46.881,0,0,1-5.063-13.354q-1.8-7.828-3.452-20.376a180.464,180.464,0,0,1-1.649-23.446v-6.14q0-46.584,11.583-46.585,5.063,0,8.362,5.679h0ZM910.673,437q-3.683-10.513-10.7-35.994t-12.389-38.988l0.614-.46-0.767-1.381q0.306-3.147,4.679-13.2,1.993-4.68,3.606-8.173t3.835-8.212q2.225-4.721,2.608-5.564t2-3.454a13.817,13.817,0,0,0,1.994-5.449q0-2.3-2.685-2.3-2.609,0-11.123,21.8-0.69,1.611-5.945,14.7t-8.4,19.762h-0.153l0.614-33.692q0-12.969-.767-15.733a3.518,3.518,0,0,0-1.036-2.149,4.485,4.485,0,0,0-1.956-.307q-2.687,0-2.685,3.3l1.151,7.368,0.307,0.614,0.613,56.485q0,7.293-1.035,21.835t-1.036,21.8q0,7.253,2.838,7.252,3.3,0,3.3-9.9l-0.767-34.689q0-8.212.307-11.013t3.145-7.637a32.392,32.392,0,0,0,3.3-6.677l0.461-.307q5.138,9.825,11.429,32.195a393.294,393.294,0,0,1,9.359,40.561l2.148,0.614h0A2.847,2.847,0,0,0,910.673,437h0Zm48.558-52.61q0-3.414.307-8.173a22.7,22.7,0,0,1-1.419-7.522q-0.345-5.217-1.8-21.8-0.461-5.295-1.035-11.627t-1.151-10.437q-0.576-4.106-1.381-5.219t-3.26-1.113q-2,0-4.526,9.056-1.075,3.762-1.764,6.524t-1.957,8.557q-1.264,5.8-4.832,26.439T931.462,395.9q-1.381,6.178-3.644,19.839T923.1,432.928q1.15,1.92,4.833,1.919,1.151-1.687,2.3-8.519t2.378-12.548q1.227-5.716,2.762-5.718a76.718,76.718,0,0,1,12.274,1.5q8.285,1.5,8.285,3.569v15.579l0.46,3.147a4.1,4.1,0,0,1-.46,1.842,2.393,2.393,0,0,0,.92,1.918,3.582,3.582,0,0,0,2.378.768,3.988,3.988,0,0,0,2.685-1.075,3.64,3.64,0,0,0,.46-2.3v-1.688l-1.764-40.983A12.232,12.232,0,0,1,959.231,384.386Zm-24.394,18.381q0-4.144,2.225-11.973,1.073-3.528,2.033-7.866t3.145-19.57q2.186-15.234,3.413-20.108t1.765-5.411l-0.461-.921a43.617,43.617,0,0,1,2.072-6.907,9.526,9.526,0,0,0,.268,1.919q0.268,1.228.345,1.688a445.849,445.849,0,0,1,6.137,70.837,1.289,1.289,0,0,1-1.457,1.459l-0.767-.307a9.654,9.654,0,0,1-2.839.307,49.937,49.937,0,0,1-15.879-2.226v-0.921Zm66.2-95.4q4.14,0,4.14-3.607a3.918,3.918,0,0,0-1.07-2.494,3.178,3.178,0,0,0-2.46-1.267,3.543,3.543,0,0,0-2.568,1.228,3.489,3.489,0,0,0-.23,5.027,2.834,2.834,0,0,0,2.188,1.113h0Zm-32.795-.077a5.375,5.375,0,0,1-2.609.691,2.523,2.523,0,0,1-2.186-1.305,4.831,4.831,0,0,1-.844-2.648,3.816,3.816,0,0,1,1.189-2.609,3.5,3.5,0,0,1,2.57-1.266q3.147,0,3.145,5.142A2.17,2.17,0,0,1,968.245,307.294Zm32.565,126.555q0-3.913-4.067-3.914l-5.677.461,0.153-8.135q0-15.118-1.956-45.127T987.307,337q0-10.131.537-12.2a2.944,2.944,0,0,1,3.222-2.532l3.759,0.153q1.917,0,1.918-2.571t-4.143-2.571a57.379,57.379,0,0,0-9.358,1.42q-6.9,1.421-6.9,3.607t1.687,2.187l5.37-1.151q0.461,1.536.46,9.133L983.7,350.886q0.23,8.136,1,26.785t0.882,25.1q0.115,6.447.614,12.97t0.422,11.052q-0.078,4.529-3.222,4.528l-3.452-.154q-3.606,0-3.605,1.765,1.151,2.688,8.361,2.686h0.384q0.92,1.227,4.449,1.228a5.242,5.242,0,0,1,3.6-1.841l4.986,0.767Zm33.94-55.449c-1.51-2.737-2.45-4.463-2.84-5.181s-1.2-2.3-2.45-4.758-2.1-4.221-2.53-5.3-1.11-2.712-2.03-4.912a37.561,37.561,0,0,1-1.92-5.449q-0.54-2.148-1.54-6.255a45.014,45.014,0,0,1-.99-10.322q0-8.442,5.06-13.661a8.558,8.558,0,0,1,6.44-2.84q1.62,1.613,5.14,1.612l0.92-1.765c-0.36-.921-1.38-1.8-3.07-2.648a9.814,9.814,0,0,0-4.14-1.266,12.34,12.34,0,0,0-8.82,3.607q-6.9,6.831-6.9,18.265,0,13.815,7.9,29.318,3.3,6.524,6.63,13.046a81.211,81.211,0,0,1,5.64,14.429,55.216,55.216,0,0,1,2.3,15.541,49.539,49.539,0,0,1-3.07,16.385,19.306,19.306,0,0,1-4.41,7.215c-1.91,1.945-3.72,2.916-5.4,2.916a13.667,13.667,0,0,1-5.34-1.19,12.251,12.251,0,0,0-4.45-1.189c-1.1,0-1.64.64-1.64,1.918q1.83,3.3,6.36,3.761c1.02,0.1,2.75.154,5.18,0.154a13,13,0,0,0,7.59-2.878,20.288,20.288,0,0,0,6.22-7.33,42.934,42.934,0,0,0,3.45-9.286,41.442,41.442,0,0,0,1.19-9.9q0-5.066-2.38-14.429-3.6-12.048-3.6-12.126l0.15-.614Q1037.01,382.506,1034.75,378.4Zm58.11,5.986q0-3.414.31-8.173a22.62,22.62,0,0,1-1.42-7.522q-0.345-5.217-1.8-21.8-0.465-5.295-1.04-11.627c-0.38-4.221-.77-7.7-1.15-10.437s-0.84-4.477-1.38-5.219-1.62-1.113-3.26-1.113q-1.995,0-4.53,9.056-1.065,3.762-1.76,6.524t-1.96,8.557q-1.26,5.8-4.83,26.439t-4.95,26.823q-1.38,6.178-3.64,19.839t-4.72,17.191q1.155,1.92,4.83,1.919,1.155-1.687,2.3-8.519t2.38-12.548q1.23-5.716,2.76-5.718a76.849,76.849,0,0,1,12.28,1.5q8.28,1.5,8.28,3.569v15.579l0.46,3.147a4.048,4.048,0,0,1-.46,1.842,2.4,2.4,0,0,0,.92,1.918,3.6,3.6,0,0,0,2.38.768,4,4,0,0,0,2.69-1.075,3.689,3.689,0,0,0,.46-2.3v-1.688l-1.77-40.983A12.243,12.243,0,0,1,1092.86,384.386Zm-24.39,18.381q0-4.144,2.22-11.973c0.72-2.352,1.39-4.975,2.03-7.866s1.69-9.414,3.15-19.57,2.59-16.858,3.41-20.108,1.41-5.052,1.77-5.411l-0.46-.921a43.175,43.175,0,0,1,2.07-6.907,9.557,9.557,0,0,0,.27,1.919c0.18,0.819.29,1.381,0.34,1.688a445.988,445.988,0,0,1,6.14,70.837,1.291,1.291,0,0,1-1.46,1.459l-0.77-.307a9.6,9.6,0,0,1-2.83.307,49.9,49.9,0,0,1-15.88-2.226v-0.921Z" transform="translate(-707 -189)"/>
      <path id="JUST_FOR_YOU" data-name="JUST FOR YOU" class="cls-1" d="M877.565,481a6.076,6.076,0,0,0,3.534,1.01,6.7,6.7,0,0,0,3.075-.6,4.108,4.108,0,0,0,1.745-1.676,7.126,7.126,0,0,0,.78-2.606,28.623,28.623,0,0,0,.183-3.387V465.45h-2.593v8.289q0,1.47-.1,2.583a5.96,5.96,0,0,1-.436,1.86,2.413,2.413,0,0,1-.964,1.125,3.258,3.258,0,0,1-1.687.379,5.4,5.4,0,0,1-1.756-.264,4.714,4.714,0,0,1-1.159-.54Zm17.476-1.94a3.9,3.9,0,0,1-1.377-1.309,5.557,5.557,0,0,1-.734-1.86,10.549,10.549,0,0,1-.218-2.17V465.45h-2.571v8.266a12.589,12.589,0,0,0,.367,3.054,7.456,7.456,0,0,0,1.194,2.606,5.926,5.926,0,0,0,2.169,1.814,7.248,7.248,0,0,0,3.293.677,7.423,7.423,0,0,0,3.225-.642,5.915,5.915,0,0,0,2.191-1.757,7.3,7.3,0,0,0,1.24-2.6,12.35,12.35,0,0,0,.39-3.157V465.45h-2.593v8.266a10.433,10.433,0,0,1-.219,2.147,5.557,5.557,0,0,1-.734,1.86,4.031,4.031,0,0,1-1.365,1.32,4.12,4.12,0,0,1-2.135.5A4.21,4.21,0,0,1,895.041,479.055Zm23.4-11.883a10.151,10.151,0,0,0-2.455-1.309,8.587,8.587,0,0,0-3.053-.528,8.172,8.172,0,0,0-2.341.322,5.462,5.462,0,0,0-1.87.953,4.537,4.537,0,0,0-1.251,1.561,4.738,4.738,0,0,0-.459,2.124,3.925,3.925,0,0,0,.31,1.642,3.366,3.366,0,0,0,.906,1.182,5.3,5.3,0,0,0,1.5.861,19.418,19.418,0,0,0,2.122.678q1.056,0.274,1.882.528a7.7,7.7,0,0,1,1.4.562,2.661,2.661,0,0,1,.884.724,1.668,1.668,0,0,1,.31,1.033,1.735,1.735,0,0,1-.826,1.561,4.35,4.35,0,0,1-2.341.528,7.409,7.409,0,0,1-1.813-.218,11.326,11.326,0,0,1-1.618-.528,8.02,8.02,0,0,1-1.309-.677,5.417,5.417,0,0,1-.86-0.666l-1.171,2.2a10.282,10.282,0,0,0,3.133,1.642,11.557,11.557,0,0,0,3.592.562,9.737,9.737,0,0,0,2.318-.264,5.648,5.648,0,0,0,1.893-.826,4,4,0,0,0,1.285-1.458,4.532,4.532,0,0,0,.471-2.136,4.2,4.2,0,0,0-.379-1.871,3.636,3.636,0,0,0-1.067-1.3,6.367,6.367,0,0,0-1.687-.9,20.1,20.1,0,0,0-2.238-.666q-1.01-.252-1.767-0.47a5.821,5.821,0,0,1-1.262-.506,2.061,2.061,0,0,1-.746-0.666,1.783,1.783,0,0,1-.241-0.975,1.978,1.978,0,0,1,.769-1.654,3.911,3.911,0,0,1,2.4-.6,6.4,6.4,0,0,1,1.435.161,7.475,7.475,0,0,1,1.285.413,6.76,6.76,0,0,1,1.021.54,3.522,3.522,0,0,1,.666.54ZM933.5,465.45H920.046v2.273h5.439v14.03h2.594v-14.03H933.5V465.45Zm9.777,16.3v-7.027H950.2v-2.135h-6.931v-4.868h8.285V465.45H940.7v16.3h2.571Zm20.231-.563a8.052,8.052,0,0,0,2.49-1.814,8.26,8.26,0,0,0,1.641-2.629,8.51,8.51,0,0,0,.023-6.142,8.7,8.7,0,0,0-1.584-2.652,8,8,0,0,0-2.456-1.894,6.948,6.948,0,0,0-3.178-.724,7.235,7.235,0,0,0-3.133.678,7.837,7.837,0,0,0-2.479,1.825,8.687,8.687,0,0,0-1.641,2.641,8.33,8.33,0,0,0-.6,3.122,8.589,8.589,0,0,0,.562,3.054,8.414,8.414,0,0,0,1.595,2.652,7.931,7.931,0,0,0,2.467,1.86A7.525,7.525,0,0,0,963.5,481.19Zm-7.941-9.758a6.02,6.02,0,0,1,1.021-1.9,5.247,5.247,0,0,1,1.63-1.343,4.594,4.594,0,0,1,2.2-.517,4.547,4.547,0,0,1,2.123.494,5.225,5.225,0,0,1,1.629,1.309,5.923,5.923,0,0,1,1.044,1.883,6.826,6.826,0,0,1,.368,2.238,6.911,6.911,0,0,1-.345,2.159,6.169,6.169,0,0,1-1.009,1.906,5.183,5.183,0,0,1-1.618,1.366,4.53,4.53,0,0,1-2.192.516,4.667,4.667,0,0,1-2.158-.493,5.12,5.12,0,0,1-1.641-1.321,6.065,6.065,0,0,1-1.044-1.9,6.866,6.866,0,0,1-.367-2.228A6.8,6.8,0,0,1,955.562,471.432Zm17.89,10.321v-5.672h3.764l3.534,5.672h2.915l-3.833-6.2a4.159,4.159,0,0,0,1.308-.7,4.508,4.508,0,0,0,1.01-1.114,5.594,5.594,0,0,0,.643-1.4,5.478,5.478,0,0,0,.229-1.585,5.2,5.2,0,0,0-.379-1.94,5.665,5.665,0,0,0-1.044-1.7,5.22,5.22,0,0,0-1.6-1.206,4.526,4.526,0,0,0-2.031-.459h-7.092v16.3h2.571Zm0-14.03h4.36a2.124,2.124,0,0,1,.976.241,2.723,2.723,0,0,1,.826.655,3.372,3.372,0,0,1,.574.964,3.164,3.164,0,0,1,.218,1.171,3.692,3.692,0,0,1-.184,1.171,3.378,3.378,0,0,1-.5.976,2.36,2.36,0,0,1-.769.666,2.066,2.066,0,0,1-1,.241h-4.5v-6.085Zm15.858-2.273,6.036,10.425v5.878h2.571V475.92L1004,465.45h-2.82l-4.548,8.174-4.5-8.174H989.31Zm25.49,15.74a8.2,8.2,0,0,0,2.49-1.814,8.311,8.311,0,0,0,1.64-2.629,8.478,8.478,0,0,0,.58-3.123,8.329,8.329,0,0,0-.56-3.019,8.614,8.614,0,0,0-1.58-2.652,7.956,7.956,0,0,0-2.46-1.894,6.915,6.915,0,0,0-3.18-.724,7.244,7.244,0,0,0-3.13.678,7.841,7.841,0,0,0-2.48,1.825,8.842,8.842,0,0,0-1.64,2.641,8.294,8.294,0,0,0-.6,3.122,8.49,8.49,0,0,0,.57,3.054,8.274,8.274,0,0,0,1.59,2.652,7.909,7.909,0,0,0,2.47,1.86,7.11,7.11,0,0,0,3.18.7A7.218,7.218,0,0,0,1014.8,481.19Zm-7.94-9.758a5.767,5.767,0,0,1,1.02-1.9,5.124,5.124,0,0,1,1.63-1.343,4.868,4.868,0,0,1,4.32-.023,5.15,5.15,0,0,1,1.63,1.309,6.076,6.076,0,0,1,1.05,1.883,7.081,7.081,0,0,1,.02,4.4,6.258,6.258,0,0,1-1.01,1.906,5.081,5.081,0,0,1-1.62,1.366,4.5,4.5,0,0,1-2.19.516,4.684,4.684,0,0,1-2.16-.493,5.116,5.116,0,0,1-1.64-1.321,5.977,5.977,0,0,1-1.04-1.9A6.8,6.8,0,0,1,1006.86,471.432Zm19.99,7.623a3.823,3.823,0,0,1-1.38-1.309,5.544,5.544,0,0,1-.74-1.86,10.985,10.985,0,0,1-.21-2.17V465.45h-2.57v8.266a12.788,12.788,0,0,0,.36,3.054,7.575,7.575,0,0,0,1.2,2.606,5.881,5.881,0,0,0,2.17,1.814,7.224,7.224,0,0,0,3.29.677,7.4,7.4,0,0,0,3.22-.642,5.938,5.938,0,0,0,2.2-1.757,7.369,7.369,0,0,0,1.23-2.6,12.35,12.35,0,0,0,.39-3.157V465.45h-2.59v8.266a10.163,10.163,0,0,1-.22,2.147,5.531,5.531,0,0,1-.73,1.86,3.877,3.877,0,0,1-3.5,1.825A4.193,4.193,0,0,1,1026.85,479.055Z" transform="translate(-707 -189)"/>
    </g>
  </g>
</svg>
