<svg xmlns="http://www.w3.org/2000/svg" width="100" height="100" viewBox="0 0 100 100">
  <metadata><?xpacket begin="﻿" id="W5M0MpCehiHzreSzNTczkc9d"?>
<x:xmpmeta xmlns:x="adobe:ns:meta/" x:xmptk="Adobe XMP Core 5.6-c142 79.160924, 2017/07/13-01:06:39        ">
   <rdf:RDF xmlns:rdf="http://www.w3.org/1999/02/22-rdf-syntax-ns#">
      <rdf:Description rdf:about=""/>
   </rdf:RDF>
</x:xmpmeta>
                                                                                                    
                                                                                                    
                                                                                                    
                                                                                                    
                                                                                                    
                                                                                                    
                                                                                                    
                                                                                                    
                                                                                                    
                                                                                                    
                                                                                                    
                                                                                                    
                                                                                                    
                                                                                                    
                                                                                                    
                                                                                                    
                                                                                                    
                                                                                                    
                                                                                                    
                                                                                                    
                           
<?xpacket end="w"?></metadata>
<defs>
    <style>
      .cls-1 {
        fill: #fff;
        fill-rule: evenodd;
      }
    </style>
  </defs>
  <g id="Plan_de_travail_2" data-name="Plan de travail 2">
    <path id="Forme_2" data-name="Forme 2" class="cls-1" d="M297.281,9.521a40.523,40.523,0,0,1-13.044,5.08,20.285,20.285,0,0,0-14.983-6.615,20.748,20.748,0,0,0-20.521,20.961,21.261,21.261,0,0,0,.529,4.774,57.873,57.873,0,0,1-42.317-21.908,21.294,21.294,0,0,0,6.355,28,20.216,20.216,0,0,1-9.3-2.615v0.258A20.86,20.86,0,0,0,220.471,58a19.645,19.645,0,0,1-5.409.738,20.038,20.038,0,0,1-3.865-.372A20.593,20.593,0,0,0,230.373,72.92a40.638,40.638,0,0,1-25.5,8.978,41.211,41.211,0,0,1-4.9-.288,57.322,57.322,0,0,0,31.468,9.41c37.765,0,58.41-31.936,58.41-59.638,0-.912-0.018-1.823-0.053-2.716a42.044,42.044,0,0,0,10.237-10.85,40.243,40.243,0,0,1-11.788,3.3A20.931,20.931,0,0,0,297.281,9.521Z" transform="translate(-200)"/>
  </g>
</svg>
